<?xml version="1.0" standalone="no"?>
<!DOCTYPE svg PUBLIC "-//W3C//DTD SVG 20010904//EN"
 "http://www.w3.org/TR/2001/REC-SVG-20010904/DTD/svg10.dtd">
<svg version="1.0" xmlns="http://www.w3.org/2000/svg"
 width="2049.000000pt" height="2836.000000pt" viewBox="0 0 2049.000000 2836.000000"
 preserveAspectRatio="xMidYMid meet">

<g transform="translate(0.000000,2836.000000) scale(0.100000,-0.100000)"
fill="#000000" stroke="none">
<path d="M820 18835 l0 -9515 9445 0 9445 0 0 9515 0 9515 -9445 0 -9445 0 0
-9515z m18390 5 l0 -8990 -8940 0 -8940 0 0 8990 0 8990 8940 0 8940 0 0
-8990z"/>
<path d="M5425 24934 c-343 -61 -655 -269 -836 -559 -55 -87 -60 -125 -22
-168 41 -46 55 -47 547 -47 l465 0 146 -207 c108 -155 144 -214 142 -233 -1
-14 -68 -118 -147 -232 l-144 -208 -473 0 c-522 0 -517 1 -549 -62 -23 -44
-13 -78 53 -177 114 -172 310 -339 504 -430 278 -131 566 -151 862 -60 l98 30
40 -35 c63 -58 138 -47 175 25 10 19 13 41 9 60 -9 40 -142 174 -180 181 -19
4 -54 -4 -102 -24 -152 -60 -213 -72 -393 -71 -136 0 -179 4 -242 21 -99 27
-210 74 -287 120 -75 46 -221 168 -221 186 0 11 79 14 393 18 313 4 397 8 415
19 25 15 416 572 432 615 6 15 8 36 4 47 -6 20 -121 190 -351 519 -90 129 -44
118 -499 118 -324 0 -394 2 -394 13 0 19 103 115 175 164 202 136 421 192 677
172 396 -31 744 -308 866 -689 62 -192 63 -346 6 -581 -14 -58 -22 -115 -19
-129 7 -28 365 -394 407 -416 57 -30 114 -11 144 47 29 57 15 81 -164 261
l-165 168 23 97 c28 119 37 292 21 402 -59 403 -324 763 -694 942 -216 105
-492 144 -722 103z"/>
<path d="M8994 24848 c-42 -32 -677 -668 -697 -698 -9 -14 -44 -100 -77 -190
l-60 -165 -598 -597 c-328 -329 -603 -598 -611 -598 -8 0 -65 50 -126 110 -87
85 -118 110 -139 110 -67 0 -124 -63 -112 -124 6 -29 -24 -61 -927 -966 -709
-709 -943 -949 -970 -995 -103 -174 -110 -357 -22 -544 47 -98 161 -214 256
-259 186 -89 374 -82 548 20 41 24 309 285 991 965 l935 932 41 -1 c51 -3 91
22 110 68 21 51 3 82 -115 199 -56 55 -101 104 -101 110 0 5 271 281 603 612
l602 602 171 61 171 61 359 359 c198 198 363 370 368 383 5 13 6 35 3 48 -6
21 -459 485 -498 510 -25 16 -75 10 -105 -13z m203 -370 c73 -73 133 -140 133
-148 0 -8 -129 -144 -287 -301 l-288 -286 -150 -53 c-82 -29 -163 -60 -180
-68 -16 -8 -303 -287 -638 -621 -334 -333 -614 -608 -623 -609 -19 -4 -54 25
-54 45 0 8 278 293 618 633 l617 619 60 168 60 168 290 293 c159 160 294 292
300 292 5 0 69 -60 142 -132z m-2210 -2220 c134 -134 243 -247 243 -253 0 -6
-420 -429 -932 -941 -1051 -1049 -969 -977 -1128 -978 -113 0 -185 28 -255 98
-81 81 -100 130 -100 257 0 98 2 110 30 163 25 48 187 215 950 977 506 505
927 919 935 919 8 0 124 -109 257 -242z"/>
<path d="M6724 22140 c-22 -8 -1586 -1566 -1636 -1628 -20 -24 -28 -46 -28
-73 0 -75 83 -129 147 -95 26 13 1528 1505 1621 1609 33 38 42 55 42 85 0 46
-19 74 -64 96 -38 18 -51 19 -82 6z"/>
<path d="M14775 23279 c-103 -25 0 73 -1391 -1334 -3306 -3345 -7070 -7160
-7073 -7169 -2 -6 -15 -24 -27 -39 -13 -16 -31 -53 -40 -82 -14 -50 -14 -60 1
-117 25 -99 91 -153 200 -164 34 -3 98 11 134 29 19 9 6042 6101 8045 8136
418 425 431 441 428 536 -1 83 -43 150 -120 193 -32 18 -108 23 -157 11z"/>
<path d="M7672 22394 c-34 -24 -54 -70 -47 -107 6 -25 185 -210 849 -877 795
-798 843 -848 861 -900 27 -79 25 -190 -4 -256 -28 -63 -100 -136 -166 -166
-71 -33 -208 -32 -280 1 -40 19 -183 157 -735 710 -377 377 -707 705 -733 728
-60 54 -103 58 -147 14 -36 -36 -46 -73 -30 -111 13 -30 1432 -1443 1494
-1487 110 -79 287 -112 415 -78 199 52 352 208 405 412 31 118 13 242 -51 367
-34 65 -103 138 -852 890 -449 450 -834 831 -855 847 -44 33 -89 37 -124 13z"/>
<path d="M8949 20482 c-50 -46 -61 -98 -31 -151 43 -79 140 -92 199 -27 41 45
50 79 32 130 -18 51 -67 86 -121 86 -31 0 -47 -7 -79 -38z"/>
<path d="M13022 17681 c-87 -30 -152 -68 -152 -89 0 -7 -6 -15 -14 -18 -19 -7
-96 -121 -96 -142 0 -9 -7 -39 -15 -66 -10 -32 -15 -92 -15 -173 l0 -123 -40
0 c-87 0 -160 -55 -160 -120 0 -24 49 -90 67 -90 6 0 13 -5 15 -12 2 -6 30
-13 61 -16 l57 -4 0 -123 c0 -127 10 -180 53 -277 11 -27 24 -48 28 -48 4 0
10 -9 14 -19 3 -11 14 -22 23 -25 9 -3 26 -19 37 -36 11 -16 23 -30 27 -30 7
0 107 -43 140 -61 11 -5 699 -9 1689 -9 l1672 0 81 40 c44 21 96 53 115 70 18
16 37 30 40 30 3 0 17 23 31 51 41 83 44 89 53 89 4 0 6 4 3 8 -3 5 1 30 9 57
10 30 15 92 15 167 l0 118 61 0 c59 0 63 -2 105 -44 l44 -43 0 -354 c0 -336
-1 -355 -20 -379 -11 -14 -20 -28 -20 -33 0 -17 -77 -78 -110 -87 -19 -5 -63
-10 -98 -10 -66 0 -271 -32 -317 -50 -15 -6 -41 -10 -58 -10 -18 0 -70 -9
-117 -19 -141 -32 -292 -60 -350 -66 -30 -4 -77 -10 -105 -15 -27 -5 -104 -19
-170 -31 -66 -12 -154 -30 -196 -40 -41 -11 -91 -19 -110 -19 -19 0 -50 -5
-69 -10 -19 -6 -69 -17 -110 -25 -41 -9 -99 -27 -128 -42 -85 -44 -192 -157
-192 -205 -1 -13 -7 -34 -15 -48 -11 -20 -14 -77 -15 -277 l0 -253 -205 0
-204 0 -28 -27 c-57 -57 -59 -77 -21 -258 6 -27 14 -86 18 -130 4 -44 13 -113
19 -152 6 -40 16 -105 21 -143 6 -42 10 -372 10 -815 0 -767 2 -811 41 -885
22 -42 89 -118 121 -136 118 -68 120 -68 320 -72 180 -3 207 0 288 30 70 26
161 108 203 183 l22 40 5 825 c4 606 9 834 18 860 7 19 12 55 12 80 0 45 14
132 51 310 11 52 20 123 21 158 1 55 -2 65 -26 87 -46 43 -58 45 -255 45
l-191 0 0 233 c0 212 2 236 20 271 11 22 31 48 45 60 26 20 193 64 251 65 17
1 53 8 80 16 47 14 76 19 289 50 112 16 244 41 355 66 47 10 106 19 131 19 24
0 60 5 79 10 40 12 118 25 272 45 59 8 130 21 159 29 29 9 69 16 88 16 40 0
162 40 189 61 9 8 32 23 51 33 44 24 90 73 107 113 8 18 20 36 27 40 8 4 16
17 20 28 3 11 13 38 21 60 12 33 15 103 16 401 0 351 -1 363 -22 420 -27 70
-50 104 -102 155 -67 64 -183 109 -281 109 l-45 0 0 122 c0 121 -14 202 -46
258 -8 14 -19 37 -26 53 -7 15 -16 27 -20 27 -4 0 -8 5 -8 11 0 34 -108 108
-211 144 l-72 25 -1636 0 -1636 -1 -83 -28z m3378 -224 c52 -25 82 -53 104
-96 23 -44 24 -761 1 -812 -20 -47 -44 -71 -88 -91 -35 -17 -137 -18 -1673
-18 -1786 0 -1679 -4 -1727 57 -54 67 -56 81 -56 461 -1 341 0 354 20 395 12
23 28 46 35 50 8 4 14 14 14 21 0 8 8 16 18 20 9 3 33 12 52 20 30 12 275 15
1645 15 l1610 1 45 -23z m-1170 -2939 c0 -15 -16 -105 -41 -226 -10 -51 -19
-106 -19 -121 0 -64 14 -61 -284 -61 l-271 0 -23 128 c-12 70 -29 159 -38 197
-8 39 -14 76 -14 83 0 9 76 12 345 12 260 0 345 -3 345 -12z m-100 -1358 l0
-711 -35 -35 -36 -35 -182 3 c-181 3 -182 3 -209 29 l-28 26 0 717 0 716 245
0 245 0 0 -710z"/>
<path d="M14824 12928 c-40 -19 -54 -69 -54 -193 0 -162 19 -195 110 -195 59
0 80 11 105 55 22 37 25 53 25 144 0 109 -8 134 -59 178 -28 24 -89 30 -127
11z"/>
<path d="M6880 3535 l0 -3525 415 0 415 0 0 3525 0 3525 -415 0 -415 0 0
-3525z"/>
<path d="M9250 3535 l0 -3525 415 0 415 0 0 3525 0 3525 -415 0 -415 0 0
-3525z"/>
<path d="M2450 6748 c-5 -13 -554 -1533 -1219 -3378 l-1209 -3355 426 -3 c234
-1 427 0 430 2 2 3 129 366 282 808 l278 803 1166 3 c641 1 1166 5 1166 10 0
28 -121 245 -184 332 -153 208 -274 277 -536 301 -126 11 -1304 6 -1377 -6
-32 -5 -43 -4 -43 6 0 7 22 56 49 109 67 129 1084 3047 1126 3228 18 77 33
122 41 122 15 0 14 1 49 -145 14 -62 440 -1304 973 -2842 l946 -2733 463 0
462 0 -35 98 c-19 53 -567 1573 -1218 3377 l-1182 3280 -422 3 -422 2 -10 -22z"/>
<path d="M14060 3390 l0 -3380 420 0 420 0 0 3380 0 3380 -420 0 -420 0 0
-3380z"/>
<path d="M18875 4885 c-317 -52 -653 -178 -1030 -388 -148 -82 -140 -75 -118
-99 28 -32 172 -137 223 -163 105 -53 208 -77 350 -82 149 -6 209 3 454 63
373 91 626 5 754 -256 23 -47 52 -121 65 -165 l22 -80 3 -1852 2 -1853 440 0
440 0 0 1798 c0 1898 0 1876 -45 2092 -49 237 -178 492 -323 643 -104 108
-279 219 -422 269 -30 11 -120 33 -200 49 -123 25 -174 31 -335 34 -138 3
-215 1 -280 -10z"/>
<path d="M16410 4807 c0 -2 13 -69 29 -148 16 -79 39 -210 50 -290 51 -348 51
-339 51 -2416 l0 -1943 440 0 441 0 -3 2012 -3 2013 -28 130 c-54 247 -117
377 -281 583 l-50 62 -323 0 c-178 0 -323 -2 -323 -3z"/>
</g>
</svg>
