<?xml version="1.0" standalone="no"?>
<!DOCTYPE svg PUBLIC "-//W3C//DTD SVG 20010904//EN"
 "http://www.w3.org/TR/2001/REC-SVG-20010904/DTD/svg10.dtd">
<svg version="1.0" xmlns="http://www.w3.org/2000/svg"
 width="2047.000000pt" height="706.000000pt" viewBox="0 0 2047.000000 706.000000"
 preserveAspectRatio="xMidYMid meet">

<g transform="translate(0.000000,706.000000) scale(0.100000,-0.100000)"
fill="#000000" stroke="none">
<path d="M6860 3535 l0 -3525 415 0 415 0 0 3525 0 3525 -415 0 -415 0 0
-3525z"/>
<path d="M9230 3535 l0 -3525 415 0 415 0 0 3525 0 3525 -415 0 -415 0 0
-3525z"/>
<path d="M2430 6748 c-5 -13 -554 -1533 -1219 -3378 l-1209 -3355 426 -3 c234
-1 427 0 430 2 2 3 129 366 282 808 l278 803 1166 3 c641 1 1166 5 1166 10 0
28 -121 245 -184 332 -153 208 -274 277 -536 301 -126 11 -1304 6 -1377 -6
-32 -5 -43 -4 -43 6 0 7 22 56 49 109 67 129 1084 3047 1126 3228 18 77 33
122 41 122 15 0 14 1 49 -145 14 -62 440 -1304 973 -2842 l946 -2733 463 0
462 0 -35 98 c-19 53 -567 1573 -1218 3377 l-1182 3280 -422 3 -422 2 -10 -22z"/>
<path d="M14040 3390 l0 -3380 420 0 420 0 0 3380 0 3380 -420 0 -420 0 0
-3380z"/>
<path d="M18855 4885 c-317 -52 -653 -178 -1030 -388 -148 -82 -140 -75 -118
-99 28 -32 172 -137 223 -163 105 -53 208 -77 350 -82 149 -6 209 3 454 63
373 91 626 5 754 -256 23 -47 52 -121 65 -165 l22 -80 3 -1852 2 -1853 440 0
440 0 0 1798 c0 1898 0 1876 -45 2092 -49 237 -178 492 -323 643 -104 108
-279 219 -422 269 -30 11 -120 33 -200 49 -123 25 -174 31 -335 34 -138 3
-215 1 -280 -10z"/>
<path d="M16390 4807 c0 -2 13 -69 29 -148 16 -79 39 -210 50 -290 51 -348 51
-339 51 -2416 l0 -1943 440 0 441 0 -3 2012 -3 2013 -28 130 c-54 247 -117
377 -281 583 l-50 62 -323 0 c-178 0 -323 -2 -323 -3z"/>
</g>
</svg>
