<?xml version="1.0" standalone="no"?>
<!DOCTYPE svg PUBLIC "-//W3C//DTD SVG 20010904//EN"
 "http://www.w3.org/TR/2001/REC-SVG-20010904/DTD/svg10.dtd">
<svg version="1.0" xmlns="http://www.w3.org/2000/svg"
 width="1891.000000pt" height="1905.000000pt" viewBox="0 0 1891.000000 1905.000000"
 preserveAspectRatio="xMidYMid meet">

<g transform="translate(0.000000,1905.000000) scale(0.100000,-0.100000)"
fill="#000000" stroke="none">
<path d="M10 9525 l0 -9515 9445 0 9445 0 0 9515 0 9515 -9445 0 -9445 0 0
-9515z m18390 5 l0 -8990 -8940 0 -8940 0 0 8990 0 8990 8940 0 8940 0 0
-8990z"/>
<path d="M4615 15624 c-343 -61 -655 -269 -836 -559 -55 -87 -60 -125 -22
-168 41 -46 55 -47 547 -47 l465 0 146 -207 c108 -155 144 -214 142 -233 -1
-14 -68 -118 -147 -232 l-144 -208 -473 0 c-522 0 -517 1 -549 -62 -23 -44
-13 -78 53 -177 114 -172 310 -339 504 -430 278 -131 566 -151 862 -60 l98 30
40 -35 c63 -58 138 -47 175 25 10 19 13 41 9 60 -9 40 -142 174 -180 181 -19
4 -54 -4 -102 -24 -152 -60 -213 -72 -393 -71 -136 0 -179 4 -242 21 -99 27
-210 74 -287 120 -75 46 -221 168 -221 186 0 11 79 14 393 18 313 4 397 8 415
19 25 15 416 572 432 615 6 15 8 36 4 47 -6 20 -121 190 -351 519 -90 129 -44
118 -499 118 -324 0 -394 2 -394 13 0 19 103 115 175 164 202 136 421 192 677
172 396 -31 744 -308 866 -689 62 -192 63 -346 6 -581 -14 -58 -22 -115 -19
-129 7 -28 365 -394 407 -416 57 -30 114 -11 144 47 29 57 15 81 -164 261
l-165 168 23 97 c28 119 37 292 21 402 -59 403 -324 763 -694 942 -216 105
-492 144 -722 103z"/>
<path d="M8184 15538 c-42 -32 -677 -668 -697 -698 -9 -14 -44 -100 -77 -190
l-60 -165 -598 -597 c-328 -329 -603 -598 -611 -598 -8 0 -65 50 -126 110 -87
85 -118 110 -139 110 -67 0 -124 -63 -112 -124 6 -29 -24 -61 -927 -966 -709
-709 -943 -949 -970 -995 -103 -174 -110 -357 -22 -544 47 -98 161 -214 256
-259 186 -89 374 -82 548 20 41 24 309 285 991 965 l935 932 41 -1 c51 -3 91
22 110 68 21 51 3 82 -115 199 -56 55 -101 104 -101 110 0 5 271 281 603 612
l602 602 171 61 171 61 359 359 c198 198 363 370 368 383 5 13 6 35 3 48 -6
21 -459 485 -498 510 -25 16 -75 10 -105 -13z m208 -365 c76 -76 138 -145 138
-153 0 -8 -129 -144 -287 -301 l-288 -286 -160 -58 c-88 -32 -171 -63 -185
-71 -14 -7 -299 -287 -635 -623 -335 -336 -616 -611 -623 -611 -17 0 -51 40
-52 60 0 8 277 292 615 630 l614 615 65 179 65 180 288 288 c158 158 292 288
298 288 5 0 72 -62 147 -137z m-2219 -2220 c136 -136 247 -254 247 -262 0 -9
-417 -433 -927 -942 -1034 -1032 -962 -969 -1114 -977 -172 -9 -306 76 -365
233 -27 71 -25 191 6 270 21 58 61 99 954 993 512 512 936 932 942 932 6 0
122 -111 257 -247z"/>
<path d="M5097 12013 c-450 -450 -825 -831 -833 -846 -31 -58 23 -137 95 -137
34 0 73 37 854 818 450 449 825 830 833 845 31 58 -23 137 -95 137 -34 0 -73
-37 -854 -817z"/>
<path d="M14013 13979 c-10 -3 -28 -5 -40 -4 -13 1 -23 -2 -23 -6 0 -4 -9 -6
-19 -4 -11 2 -22 -3 -25 -11 -3 -9 -10 -12 -16 -9 -6 3 -113 -96 -238 -222
-584 -584 -8146 -8245 -8151 -8257 -2 -6 -15 -24 -27 -39 -13 -16 -31 -53 -40
-82 -14 -50 -14 -60 1 -117 16 -63 30 -86 75 -123 30 -24 100 -57 100 -46 0 4
7 8 15 8 8 0 15 -4 15 -8 0 -4 9 -7 20 -6 11 1 20 4 20 7 0 4 6 7 13 8 27 1
60 12 73 23 8 6 14 10 14 7 0 -7 591 590 4166 4212 1925 1950 3517 3558 3538
3574 20 15 35 30 32 34 -3 3 150 162 340 355 261 263 351 361 367 396 24 54
26 129 3 181 -18 44 -81 114 -94 106 -5 -3 -15 1 -22 10 -7 8 -19 13 -27 10
-7 -3 -13 -2 -13 2 0 9 -33 10 -57 1z"/>
<path d="M6862 13084 c-34 -24 -54 -70 -47 -107 6 -25 185 -210 849 -877 795
-798 843 -848 861 -900 27 -79 25 -190 -4 -256 -28 -63 -100 -136 -166 -166
-71 -33 -208 -32 -280 1 -40 19 -183 157 -735 710 -377 377 -707 705 -733 728
-60 54 -103 58 -147 14 -36 -36 -46 -73 -30 -111 13 -30 1432 -1443 1494
-1487 110 -79 287 -112 415 -78 199 52 352 208 405 412 31 118 13 242 -51 367
-34 65 -103 138 -852 890 -449 450 -834 831 -855 847 -44 33 -89 37 -124 13z"/>
<path d="M8139 11172 c-50 -46 -61 -98 -31 -151 43 -79 140 -92 199 -27 41 45
50 79 32 130 -18 51 -67 86 -121 86 -31 0 -47 -7 -79 -38z"/>
<path d="M12212 8371 c-87 -30 -152 -68 -152 -89 0 -7 -6 -15 -14 -18 -19 -7
-96 -121 -96 -142 0 -9 -7 -39 -15 -66 -10 -32 -15 -92 -15 -173 l0 -123 -40
0 c-87 0 -160 -55 -160 -120 0 -24 49 -90 67 -90 6 0 13 -5 15 -12 2 -6 30
-13 61 -16 l57 -4 0 -123 c0 -127 10 -180 53 -277 11 -27 24 -48 28 -48 4 0
10 -9 14 -19 3 -11 14 -22 23 -25 9 -3 26 -19 37 -36 11 -16 23 -30 27 -30 7
0 107 -43 140 -61 11 -5 699 -9 1689 -9 l1672 0 81 40 c44 21 96 53 115 70 18
16 38 30 42 30 5 0 9 5 9 11 0 6 9 24 21 40 11 16 17 29 12 29 -4 0 -3 4 2 8
44 32 64 121 65 280 l0 122 61 0 c59 0 63 -2 105 -44 l44 -43 0 -354 c0 -336
-1 -355 -20 -379 -11 -14 -20 -28 -20 -33 0 -17 -77 -78 -110 -87 -19 -5 -63
-10 -98 -10 -66 0 -271 -32 -317 -50 -15 -6 -41 -10 -58 -10 -18 0 -70 -9
-117 -19 -141 -32 -292 -60 -350 -66 -30 -4 -77 -10 -105 -15 -27 -5 -104 -19
-170 -31 -66 -12 -154 -30 -196 -40 -41 -11 -91 -19 -110 -19 -19 0 -50 -5
-69 -10 -19 -6 -69 -17 -110 -25 -41 -9 -99 -27 -128 -42 -85 -44 -192 -157
-192 -205 -1 -13 -7 -34 -15 -48 -11 -20 -14 -77 -15 -277 l0 -253 -205 0
-204 0 -28 -27 c-57 -57 -59 -77 -21 -258 6 -27 14 -86 18 -130 4 -44 13 -113
19 -152 6 -40 16 -105 21 -143 6 -42 10 -372 10 -815 0 -767 2 -811 41 -885
22 -42 89 -118 121 -136 118 -68 120 -68 320 -72 180 -3 207 0 288 30 70 26
161 108 203 183 l22 40 5 825 c4 606 9 834 18 860 7 19 12 55 12 80 0 45 14
132 51 310 11 52 20 123 21 158 1 55 -2 65 -26 87 -46 43 -58 45 -255 45
l-191 0 0 233 c0 212 2 236 20 271 11 22 31 48 45 60 26 20 193 64 251 65 17
1 53 8 80 16 47 14 76 19 289 50 112 16 244 41 355 66 47 10 106 19 131 19 24
0 60 5 79 10 40 12 118 25 272 45 59 8 130 21 159 29 29 9 69 16 88 16 40 0
162 40 189 61 9 8 32 23 51 33 44 24 90 73 107 113 8 18 20 36 27 40 8 4 16
17 20 28 3 11 13 38 21 60 12 33 15 103 16 401 0 351 -1 363 -22 420 -27 70
-50 104 -102 155 -67 64 -183 109 -281 109 l-45 0 0 122 c0 121 -14 202 -46
258 -8 14 -19 37 -26 53 -7 15 -16 27 -20 27 -4 0 -8 5 -8 11 0 34 -108 108
-211 144 l-72 25 -1636 0 -1636 -1 -83 -28z m3388 -214 c52 -25 82 -53 104
-96 23 -44 24 -781 1 -832 -20 -47 -44 -71 -88 -91 -35 -17 -137 -18 -1683
-18 -1797 0 -1689 -4 -1737 57 -54 67 -56 80 -56 471 -1 351 0 364 20 405 12
23 28 46 35 50 8 4 14 14 14 21 0 8 8 16 18 20 9 3 33 12 52 20 30 12 276 15
1655 15 l1620 1 45 -23z m-1170 -2944 c0 -5 -7 -33 -15 -63 -8 -30 -15 -68
-15 -85 0 -16 -9 -66 -20 -110 -11 -44 -20 -97 -20 -117 l0 -38 -279 0 -278 0
-18 83 c-9 45 -21 111 -26 147 -5 36 -15 90 -24 120 -8 30 -15 58 -15 63 0 4
160 7 355 7 195 0 355 -3 355 -7z m-100 -1341 c0 -390 -4 -701 -9 -719 -5 -18
-22 -44 -37 -58 -27 -25 -28 -25 -213 -25 l-186 1 -30 26 -30 26 -3 719 -3
718 256 0 255 0 0 -688z"/>
<path d="M14014 3612 c-46 -38 -54 -66 -54 -181 0 -92 3 -117 20 -150 22 -40
41 -51 98 -51 47 0 67 14 97 64 21 35 25 56 25 118 0 106 -8 134 -49 179 -31
33 -43 39 -77 39 -22 0 -48 -8 -60 -18z"/>
</g>
</svg>
