<svg version="1.0" xmlns="http://www.w3.org/2000/svg"
 width="364.000000pt" height="332.000000pt" viewBox="0 0 364.000000 332.000000"
 preserveAspectRatio="xMidYMid meet">

<g transform="translate(0.000000,332.000000) scale(0.100000,-0.100000)"
fill="#000000" stroke="none">
<path d="M1745 2767 c-79 -53 -234 -126 -325 -152 -185 -54 -276 -71 -447 -81
-62 -4 -113 -10 -113 -13 0 -4 33 -21 73 -40 39 -18 86 -47 103 -63 l32 -30
78 12 c115 17 219 38 299 62 68 20 251 103 328 149 l37 23 38 -22 c95 -57 206
-108 312 -142 117 -39 327 -80 406 -80 l44 0 0 -203 c0 -112 3 -207 6 -210 4
-4 23 2 43 12 20 11 51 25 69 31 l32 12 0 248 0 247 -113 7 c-314 19 -535 82
-742 212 -48 30 -92 54 -98 54 -7 0 -35 -15 -62 -33z"/>
<path d="M1735 2504 c-63 -36 -174 -81 -189 -76 -4 1 -13 -1 -20 -7 -21 -17
-215 -65 -353 -86 -24 -4 -43 -10 -43 -14 0 -12 64 -68 97 -85 47 -24 58 -20
99 29 40 49 64 56 115 30 23 -12 37 -14 62 -6 83 26 93 28 143 16 28 -6 78
-10 110 -7 40 2 74 -2 104 -13 25 -9 79 -22 121 -29 55 -9 89 -21 124 -44 27
-18 58 -32 70 -32 32 0 113 -58 140 -99 13 -20 28 -52 34 -73 14 -41 12 -40
103 -58 100 -20 98 -23 98 186 0 120 -4 175 -12 180 -6 4 -27 9 -45 11 -91 10
-347 65 -413 89 -41 14 -118 48 -171 75 -52 27 -100 49 -105 48 -5 0 -36 -16
-69 -35z"/>
<path d="M684 2431 c-17 -4 -36 -11 -42 -15 -7 -4 -21 -9 -32 -11 -11 -2 -27
-11 -36 -19 -8 -9 -20 -16 -24 -16 -18 0 -44 -50 -32 -62 5 -5 65 -23 133 -39
67 -15 128 -34 135 -41 17 -18 54 -126 54 -158 -1 -16 -21 -47 -60 -89 l-60
-64 -118 27 c-144 32 -172 33 -172 7 0 -63 75 -151 169 -198 50 -25 67 -28
151 -27 52 0 104 3 115 6 11 4 25 7 31 7 6 1 21 10 34 21 48 42 232 69 258 38
5 -7 12 -78 14 -158 l5 -145 56 -83 c58 -85 107 -153 118 -162 3 -3 33 -42 67
-87 l62 -82 0 -225 c0 -124 -3 -226 -8 -226 -16 0 -147 82 -207 130 -74 59
-122 115 -176 207 -77 132 -111 292 -125 601 l-7 149 -68 -30 -69 -31 0 -120
c0 -520 181 -836 590 -1033 74 -36 186 -89 247 -119 l113 -54 37 18 c21 11 74
37 118 59 44 23 127 62 185 87 57 26 112 53 120 61 9 8 20 15 24 15 20 0 160
116 213 176 97 108 191 290 209 402 l6 41 -63 30 c-64 31 -78 29 -79 -10 0
-29 -41 -143 -77 -214 -59 -119 -138 -205 -262 -286 -40 -27 -77 -49 -82 -49
-5 0 -9 77 -9 172 l0 172 40 60 c68 105 82 160 96 379 8 121 5 118 88 93 71
-21 118 -57 182 -137 66 -83 122 -122 218 -151 61 -18 74 -19 125 -8 64 14
171 61 190 84 24 29 -2 50 -86 69 -204 47 -191 39 -218 136 -9 36 -19 71 -22
78 -7 17 115 143 139 143 10 0 70 -12 133 -26 63 -14 122 -24 130 -20 22 8 18
35 -15 92 -38 67 -113 121 -204 146 -97 28 -163 20 -279 -33 -104 -48 -153
-56 -240 -39 -118 23 -125 27 -132 70 -13 76 -94 160 -155 160 -8 0 -40 16
-70 35 -52 33 -67 37 -155 35 -3 0 -22 7 -43 16 -23 10 -70 17 -127 19 -49 1
-109 5 -133 10 -33 6 -52 3 -82 -10 -22 -10 -40 -22 -40 -27 0 -9 -50 20 -61
36 -12 16 -58 -4 -73 -32 -26 -51 -41 -57 -99 -42 -63 16 -121 54 -168 110
-82 98 -122 134 -186 162 -48 21 -161 32 -209 19z m941 -301 c17 -18 16 -23
-9 -112 -31 -112 -46 -188 -46 -238 0 -30 -5 -39 -25 -48 -23 -11 -29 -9 -52
14 -25 25 -25 28 -20 122 10 201 87 334 152 262z m-211 -16 c12 -32 5 -78 -20
-134 l-26 -58 20 -55 c11 -29 26 -90 33 -135 12 -79 14 -82 53 -109 66 -43
146 -123 188 -187 l38 -59 0 48 c0 54 -28 122 -66 157 -41 39 -23 52 32 23 16
-8 52 -14 80 -14 28 1 61 -4 74 -11 12 -7 50 -14 84 -16 34 -2 84 -6 113 -10
43 -5 59 -3 87 14 26 15 45 19 72 15 l36 -6 -5 -136 c-5 -119 -17 -191 -42
-254 -9 -23 -18 -22 -72 10 l-46 27 7 -305 8 -304 -39 -14 c-21 -8 -80 -33
-132 -57 l-93 -44 -74 35 c-40 19 -78 35 -83 35 -5 0 -16 7 -25 15 -12 12 -15
52 -16 225 0 116 3 210 6 210 4 0 36 -16 72 -36 36 -20 61 -30 56 -23 -4 8
-44 55 -89 104 -139 154 -290 356 -337 450 -9 18 -18 72 -21 135 -3 58 -13
149 -22 203 l-17 98 39 42 c21 23 53 63 71 90 35 50 46 56 56 31z m406 1 c10
-12 6 -35 -24 -126 -26 -76 -39 -137 -43 -195 -5 -74 -9 -88 -29 -100 -54 -36
-91 33 -81 151 8 92 52 231 82 261 27 27 76 32 95 9z m174 -25 c34 -12 34 -40
1 -115 -31 -70 -65 -205 -65 -261 0 -73 -70 -101 -98 -39 -39 85 28 359 100
409 26 19 29 19 62 6z m174 -82 c18 -18 15 -31 -23 -133 -19 -51 -37 -119 -41
-152 -8 -75 -27 -105 -62 -101 -16 2 -32 13 -40 28 -29 57 29 283 90 347 23
25 57 30 76 11z"/>
<path d="M1073 1578 c3 -101 11 -212 17 -248 27 -159 103 -330 186 -419 51
-55 142 -131 158 -131 3 0 6 66 6 146 l0 145 -57 77 c-32 42 -62 84 -68 94 -5
10 -46 70 -89 133 l-79 115 -5 135 -5 135 -35 0 -35 0 6 -182z"/>
<path d="M2360 1428 c0 -62 -26 -226 -44 -276 -8 -23 -33 -68 -56 -99 -40 -56
-40 -57 -40 -150 0 -55 4 -93 10 -93 18 0 137 125 175 184 43 68 88 183 105
274 l13 62 -36 46 c-39 50 -93 94 -114 94 -9 0 -13 -14 -13 -42z"/>
</g>
</svg>
